<?xml version="1.0" standalone="no"?>
<!DOCTYPE svg PUBLIC "-//W3C//DTD SVG 20010904//EN"
 "http://www.w3.org/TR/2001/REC-SVG-20010904/DTD/svg10.dtd">
<svg version="1.0" xmlns="http://www.w3.org/2000/svg"
 width="600.000000pt" height="600.000000pt" viewBox="0 0 600.000000 600.000000"
 preserveAspectRatio="xMidYMid meet">
<metadata>
Created by potrace 1.14, written by Peter Selinger 2001-2017
</metadata>
<g transform="translate(0.000000,600.000000) scale(0.100000,-0.100000)"
fill="#000000" stroke="none">
<path d="M2683 5239 c-12 -4 -30 -20 -40 -35 -15 -23 -17 -53 -18 -218 -1
-105 2 -207 6 -226 7 -29 42 -70 59 -68 3 1 16 -1 30 -5 14 -3 61 -9 105 -12
99 -7 260 -33 350 -56 186 -48 456 -158 590 -241 228 -142 440 -321 592 -503
236 -281 428 -701 483 -1055 6 -41 13 -86 16 -100 2 -14 6 -59 10 -100 15
-183 15 -183 292 -183 213 0 235 4 262 46 13 22 16 136 5 217 -2 19 -7 53 -9
75 -14 106 -18 135 -32 205 -44 222 -123 462 -212 650 -65 136 -201 368 -259
440 -6 8 -33 44 -60 80 -94 128 -317 359 -443 459 -111 88 -300 220 -370 257
-30 16 -57 31 -60 35 -6 6 -163 83 -251 122 -53 24 -222 87 -244 91 -5 1 -14
4 -20 8 -27 16 -310 81 -405 93 -25 3 -56 8 -70 10 -102 17 -277 25 -307 14z"/>
<path d="M2683 4300 c-12 -5 -30 -21 -40 -36 -16 -25 -18 -52 -18 -241 l1
-212 29 -31 c16 -16 30 -28 33 -26 2 3 14 1 26 -4 13 -4 48 -11 80 -14 192
-21 415 -107 586 -227 158 -111 331 -311 417 -484 61 -121 114 -298 128 -429
9 -85 30 -132 67 -147 20 -8 93 -12 233 -12 191 0 205 1 233 21 16 12 32 34
35 49 5 31 2 121 -7 168 -3 17 -13 73 -22 125 -35 204 -142 467 -271 661 -174
261 -369 445 -648 609 -135 80 -378 174 -500 195 -16 3 -52 10 -80 15 -27 6
-61 12 -75 15 -56 11 -186 14 -207 5z"/>
<path d="M991 4114 c-57 -24 -54 26 -54 -1111 0 -1161 0 -1173 43 -1346 49
-198 188 -432 336 -567 89 -80 146 -126 196 -155 150 -88 309 -146 461 -169
92 -14 283 -15 367 -2 295 46 567 204 761 441 138 169 235 384 255 569 3 28 8
55 11 59 6 10 5 263 -1 285 -3 9 -7 34 -10 54 -21 138 -82 301 -163 437 -18
30 -36 57 -41 60 -4 3 -20 24 -36 46 -45 62 -184 195 -258 248 -164 117 -344
186 -552 212 -137 17 -183 13 -215 -19 l-26 -26 -2 -303 c-1 -198 2 -312 9
-330 13 -33 48 -53 108 -61 89 -12 146 -29 196 -57 138 -77 224 -203 240 -349
3 -25 7 -50 9 -56 6 -21 -24 -156 -46 -203 -25 -52 -73 -117 -106 -144 -13
-10 -29 -24 -36 -31 -47 -46 -164 -87 -256 -91 -140 -5 -253 38 -350 134 -80
80 -122 162 -136 266 -3 22 -6 515 -6 1095 -1 1022 -2 1056 -20 1082 -11 15
-30 30 -42 34 -36 13 -606 11 -636 -2z"/>
</g>
</svg>
