<?xml version="1.0" standalone="no"?>
<!DOCTYPE svg PUBLIC "-//W3C//DTD SVG 20010904//EN"
 "http://www.w3.org/TR/2001/REC-SVG-20010904/DTD/svg10.dtd">
<svg version="1.0" xmlns="http://www.w3.org/2000/svg"
 width="300.000000pt" height="300.000000pt" viewBox="0 0 300.000000 300.000000"
 preserveAspectRatio="xMidYMid meet">
<metadata>
Created by potrace 1.14, written by Peter Selinger 2001-2017
</metadata>
<g transform="translate(0.000000,300.000000) scale(0.100000,-0.100000)"
fill="#000000" stroke="none">
<path d="M0 2470 l0 -531 33 1 c17 0 83 -1 145 -4 61 -2 115 0 118 5 3 5 0 9
-6 9 -7 0 -8 6 -1 19 8 14 7 22 -4 31 -20 17 -19 25 7 39 l23 11 -24 -6 c-23
-6 -24 -4 -17 27 3 18 12 37 19 42 7 5 2 6 -15 3 -15 -3 -29 -2 -32 3 -8 12 4
41 16 41 6 0 8 -7 4 -15 -3 -8 -1 -15 4 -15 6 0 10 9 10 20 0 11 5 20 10 20 6
0 10 -5 10 -11 0 -5 5 -7 10 -4 15 9 2 25 -21 25 -12 0 -19 5 -16 13 2 6 14
11 26 10 12 -2 32 4 45 12 13 9 30 13 38 10 9 -4 33 3 54 14 29 16 34 22 21
27 -9 3 -17 11 -17 16 0 6 7 7 16 4 20 -8 94 30 94 49 0 8 8 15 18 15 13 0 14
2 4 9 -17 10 8 23 51 26 21 2 31 -3 39 -21 6 -13 15 -21 20 -18 15 9 22 -28 9
-49 -13 -21 -12 -23 31 -48 10 -5 27 -28 39 -51 20 -39 20 -42 4 -54 -10 -8
-22 -15 -27 -16 -14 -5 15 -56 34 -62 10 -2 18 -11 18 -20 0 -9 7 -16 15 -16
8 0 15 -2 15 -5 0 -10 -69 -75 -80 -75 -6 0 -3 -11 6 -25 9 -14 12 -25 6 -25
-6 0 -13 4 -17 10 -3 5 -13 6 -22 3 -15 -6 -14 -7 3 -14 33 -13 54 -10 54 8 0
15 1 15 13 -1 11 -15 22 -17 48 -13 41 8 166 17 274 21 44 1 89 7 101 13 21
12 69 20 172 30 36 3 62 10 62 17 0 6 5 4 10 -4 7 -11 12 -12 18 -3 4 6 14 11
22 10 26 -2 100 15 106 24 3 5 29 9 59 9 34 0 59 5 69 15 17 17 36 20 36 5 0
-13 37 -13 45 0 3 6 21 10 40 10 19 0 37 5 40 10 4 7 11 7 18 2 18 -13 97 6
97 24 0 10 12 14 40 14 30 0 40 -4 40 -16 0 -9 6 -14 13 -12 6 3 12 10 12 15
0 6 3 15 8 19 4 4 7 2 7 -4 0 -15 56 -16 65 -2 3 6 17 10 30 10 13 0 26 6 29
13 5 9 7 9 12 0 3 -6 16 -10 29 -7 13 2 26 0 30 -6 7 -11 56 8 68 28 7 11 12
11 24 1 12 -11 18 -9 32 10 15 20 19 21 30 7 8 -9 19 -16 25 -16 7 0 7 3 -1 8
-13 8 10 11 102 15 28 1 45 7 45 15 0 6 7 12 15 12 9 0 18 7 21 15 4 10 13 13
25 10 13 -4 19 -1 19 9 0 12 10 16 35 16 25 0 35 4 35 16 0 11 6 14 23 9 37
-12 41 -11 42 10 0 11 8 21 17 23 13 2 16 -1 12 -12 -4 -11 -1 -16 10 -16 9 0
16 -4 16 -10 0 -22 17 -8 28 24 10 28 16 32 37 28 l25 -4 0 306 c0 270 -2 306
-16 306 -8 0 -13 4 -10 8 3 5 -17 9 -44 11 -26 1 -63 6 -82 11 -43 13 -105 13
-113 0 -8 -13 -42 -13 -50 1 -4 6 2 17 14 25 12 9 19 20 16 25 -4 5 -535 9
-1361 9 l-1354 0 0 -530z m2890 320 c-13 -24 -47 -43 -54 -31 -6 10 39 51 56
51 5 0 4 -9 -2 -20z m60 -15 c0 -16 -9 -19 -34 -9 -20 8 -11 24 15 24 10 0 19
-7 19 -15z m-185 -7 c27 -12 36 -44 10 -34 -8 3 -15 1 -15 -4 0 -5 -7 -7 -15
-4 -8 4 -15 1 -15 -5 0 -12 -82 -16 -94 -4 -4 4 6 19 21 34 30 30 67 36 108
17z m-249 -86 c-4 -3 -11 -1 -18 6 -8 8 -8 15 3 28 13 16 14 16 17 -5 2 -13 1
-25 -2 -29z m-66 -17 c11 -13 7 -15 -24 -15 -35 0 -49 13 -23 23 22 9 34 7 47
-8z m500 -264 c0 -5 -10 -11 -22 -15 -37 -10 -88 -7 -88 5 0 6 7 9 15 5 8 -3
25 -1 37 4 30 12 58 12 58 1z m-1240 -126 c-7 -8 -22 -15 -34 -16 -20 0 -20
-1 -1 -8 15 -6 4 -11 -46 -20 -36 -6 -80 -11 -97 -11 l-32 0 38 35 c35 33 41
34 111 35 64 0 72 -2 61 -15z m465 -65 c-3 -5 -13 -10 -21 -10 -8 0 -12 5 -9
10 3 6 13 10 21 10 8 0 12 -4 9 -10z m-500 -29 c3 -5 1 -12 -4 -16 -15 -9 -1
-35 17 -32 10 1 18 -2 20 -8 5 -15 -37 -23 -85 -17 -29 3 -43 1 -43 -7 0 -8
-16 -9 -52 -5 -78 8 -87 12 -64 30 14 10 15 14 6 14 -9 0 -7 5 7 15 35 25 186
44 198 26z"/>
<path d="M2795 2990 c-3 -6 1 -7 9 -4 18 7 21 14 7 14 -6 0 -13 -4 -16 -10z"/>
<path d="M2808 2233 c7 -3 16 -2 19 1 4 3 -2 6 -13 5 -11 0 -14 -3 -6 -6z"/>
<path d="M398 2203 c7 -3 16 -2 19 1 4 3 -2 6 -13 5 -11 0 -14 -3 -6 -6z"/>
<path d="M330 2160 c0 -5 5 -10 10 -10 6 0 10 5 10 10 0 6 -4 10 -10 10 -5 0
-10 -4 -10 -10z"/>
<path d="M0 1854 c0 -4 8 -13 18 -20 16 -13 16 -13 0 -14 -17 0 -18 -50 -18
-910 l0 -910 1500 0 1500 0 0 470 0 470 -112 1 c-77 1 -102 4 -78 9 19 4 33 8
30 9 -3 2 -90 4 -195 7 -104 2 -260 7 -345 10 -85 3 -168 5 -185 5 -45 -1
-118 10 -112 16 3 3 75 4 159 4 411 -4 652 -4 740 0 l98 4 0 33 0 32 -64 0
c-36 0 -76 4 -90 9 -13 6 -49 11 -79 13 -30 2 -52 7 -49 12 3 6 -3 6 -14 1
-22 -10 -34 -10 -134 -2 -41 3 -156 9 -255 13 -99 4 -181 11 -183 15 -2 5 -8
9 -13 9 -6 0 -7 -4 -4 -10 3 -5 -1 -10 -10 -10 -9 0 -13 5 -10 10 4 6 -6 10
-22 11 -15 1 -84 3 -152 5 -69 2 -126 6 -129 8 -11 11 12 26 41 26 23 0 28 -3
18 -9 -9 -6 32 -10 110 -12 68 -1 144 -3 169 -4 93 -4 349 -7 445 -5 85 2 93
4 50 10 -27 4 -117 8 -200 9 -82 1 -184 4 -225 7 -116 9 -220 10 -220 2 0 -4
-12 -3 -26 2 -15 6 -60 13 -101 17 -67 5 -76 9 -84 30 -5 13 -9 29 -9 34 0 10
197 7 425 -5 134 -8 820 -18 815 -13 -7 7 -548 27 -925 34 -227 4 -324 9 -333
17 -10 9 27 11 165 8 98 -2 176 -2 173 1 -5 5 -217 16 -317 17 -35 0 -63 4
-63 9 0 4 12 7 28 5 15 -2 54 0 87 4 56 6 51 7 -75 16 -233 15 -308 13 -364
-12 -27 -12 -54 -29 -60 -37 -9 -13 -41 -14 -229 -8 -211 8 -298 1 -237 -17
23 -8 23 -8 -7 -9 -22 -1 -33 -6 -33 -15 0 -11 14 -16 48 -19 39 -3 35 -4 -23
-6 -76 -3 -138 -19 -77 -20 44 -1 41 -21 -3 -21 -19 0 -34 -3 -33 -7 1 -5 -3
-18 -10 -30 -12 -22 -11 -23 22 -23 22 0 36 -6 40 -16 9 -22 8 -24 -10 -24
-10 0 -14 6 -10 15 3 9 0 15 -8 15 -8 0 -16 -9 -19 -20 -3 -14 -14 -20 -31
-20 -15 0 -34 -4 -44 -9 -41 -22 -106 -35 -109 -24 -3 7 -11 9 -19 6 -9 -3
-14 0 -12 8 2 8 -4 13 -14 13 -10 -1 -18 2 -18 7 0 5 -7 6 -15 3 -11 -5 -13
-2 -9 11 6 14 3 16 -14 10 -13 -4 -22 -2 -22 4 0 6 -5 11 -11 11 -5 0 -7 -5
-3 -12 4 -7 3 -8 -5 -4 -9 6 -9 11 -1 21 9 10 18 11 37 4 15 -6 29 -6 32 -1 3
5 19 12 35 16 50 12 22 24 -96 38 -12 2 -14 7 -7 19 5 10 14 20 21 22 7 3 3 6
-9 6 -18 1 -23 7 -23 30 0 17 -6 31 -15 35 -12 4 -14 10 -5 25 15 28 14 59 -2
43 -7 -7 -21 -12 -33 -11 -11 0 -14 3 -7 6 17 7 15 23 -2 23 -11 0 -13 7 -6
30 5 17 5 28 0 25 -4 -2 -13 2 -20 10 -25 31 34 35 478 35 262 0 431 4 422 10
-9 4 -48 10 -87 11 -39 1 -108 8 -153 15 -46 7 -122 16 -169 20 -47 3 -106 8
-131 11 -25 2 -95 6 -156 8 -109 4 -164 15 -164 34 0 15 14 20 69 25 29 2 55
7 58 10 4 3 1 6 -5 6 -7 0 -12 4 -12 9 0 5 42 12 93 16 92 7 100 23 12 24 -22
1 -68 10 -103 20 -50 16 -81 18 -157 14 -66 -4 -99 -2 -109 6 -8 7 -25 9 -40
5 -29 -7 -128 15 -120 28 3 4 15 8 28 8 47 0 73 60 39 86 -18 13 -93 20 -93 8z
m206 -394 c0 -12 -4 -16 -9 -11 -5 5 -6 14 -3 20 10 15 12 14 12 -9z m1013
-196 c8 -8 -284 -2 -314 6 -16 5 47 6 140 3 94 -3 172 -7 174 -9z m54 -1 c-7
-2 -21 -2 -30 0 -10 3 -4 5 12 5 17 0 24 -2 18 -5z m-245 -30 c-21 -2 -57 -2
-80 0 -24 2 -7 4 37 4 44 0 63 -2 43 -4z m231 -9 c8 -8 -134 -2 -154 5 -11 5
17 6 65 4 47 -3 87 -7 89 -9z m-254 -29 c6 -2 -38 -4 -97 -4 -60 -1 -108 2
-108 7 0 7 184 5 205 -3z m195 -3 c-8 -5 -49 -5 -90 -2 l-75 7 90 1 c50 1 83
-2 75 -6z m-103 -48 c-3 -3 -12 -4 -19 -1 -8 3 -5 6 6 6 11 1 17 -2 13 -5z
m109 -1 c-7 -7 -77 -5 -85 3 -2 2 17 4 44 4 27 0 45 -3 41 -7z m-546 -97 c0
-3 -4 -8 -10 -11 -5 -3 -10 -1 -10 4 0 6 5 11 10 11 6 0 10 -2 10 -4z m2268
-3 c-10 -2 -26 -2 -35 0 -10 3 -2 5 17 5 19 0 27 -2 18 -5z m-1051 -39 c-3 -3
-12 -4 -19 -1 -8 3 -5 6 6 6 11 1 17 -2 13 -5z m-1297 -117 c0 -7 -5 -18 -11
-24 -7 -7 -3 -9 15 -6 14 3 23 9 20 14 -3 5 2 9 10 9 9 0 16 -5 16 -11 0 -6 7
-8 16 -5 14 5 15 4 5 -8 -14 -16 2 -32 21 -20 6 4 8 3 4 -4 -8 -13 -48 -12
-58 2 -3 5 -28 11 -54 13 -76 4 -85 12 -39 33 49 23 55 23 55 7z m150 5 c0
-11 -41 -34 -48 -27 -4 3 0 10 7 15 11 6 8 9 -10 13 -17 3 -13 5 14 6 20 0 37
-2 37 -7z m-200 -122 c0 -21 -8 -24 -34 -14 -15 6 -15 8 1 20 25 19 33 17 33
-6z m54 -6 c-31 -16 -55 -7 -30 11 9 7 26 11 37 8 18 -5 18 -7 -7 -19z m2289
9 c-7 -2 -19 -2 -25 0 -7 3 -2 5 12 5 14 0 19 -2 13 -5z m-2323 -43 c-19 -13
-30 -13 -30 0 0 6 10 10 23 10 18 0 19 -2 7 -10z m2357 4 c-3 -3 -12 -4 -19
-1 -8 3 -5 6 6 6 11 1 17 -2 13 -5z"/>
<path d="M483 1723 c-23 -8 -13 -23 15 -22 27 0 75 16 57 19 -44 6 -62 7 -72
3z"/>
<path d="M499 1625 c-22 -12 -17 -13 46 -17 60 -2 151 5 135 11 -39 17 -154
20 -181 6z"/>
<path d="M717 1619 c8 -8 16 -8 30 0 16 9 14 10 -11 11 -22 0 -27 -3 -19 -11z"/>
<path d="M1248 1473 c12 -2 30 -2 40 0 9 3 -1 5 -23 4 -22 0 -30 -2 -17 -4z"/>
<path d="M1004 1389 c-7 -11 27 -11 45 0 9 6 5 9 -13 9 -15 0 -29 -4 -32 -9z"/>
<path d="M958 1383 c6 -2 18 -2 25 0 6 3 1 5 -13 5 -14 0 -19 -2 -12 -5z"/>
<path d="M1048 1353 c7 -3 16 -2 19 1 4 3 -2 6 -13 5 -11 0 -14 -3 -6 -6z"/>
<path d="M1095 1350 c3 -5 8 -10 11 -10 2 0 4 5 4 10 0 6 -5 10 -11 10 -5 0
-7 -4 -4 -10z"/>
<path d="M1143 1353 c9 -2 25 -2 35 0 9 3 1 5 -18 5 -19 0 -27 -2 -17 -5z"/>
<path d="M1222 1349 c18 -7 33 -7 45 0 14 8 9 10 -27 10 -42 -1 -43 -1 -18
-10z"/>
<path d="M1893 1343 c9 -2 23 -2 30 0 6 3 -1 5 -18 5 -16 0 -22 -2 -12 -5z"/>
<path d="M1968 1343 c6 -2 18 -2 25 0 6 3 1 5 -13 5 -14 0 -19 -2 -12 -5z"/>
<path d="M900 1320 c-13 -9 -13 -10 0 -10 8 0 22 5 30 10 13 9 13 10 0 10 -8
0 -22 -5 -30 -10z"/>
<path d="M1008 1323 c7 -3 16 -2 19 1 4 3 -2 6 -13 5 -11 0 -14 -3 -6 -6z"/>
<path d="M775 1290 c-3 -5 1 -10 9 -10 9 0 16 5 16 10 0 6 -4 10 -9 10 -6 0
-13 -4 -16 -10z"/>
<path d="M750 1260 c-27 -9 -25 -9 32 -14 6 -1 13 5 16 12 4 13 -10 14 -48 2z"/>
<path d="M2038 1223 c7 -3 16 -2 19 1 4 3 -2 6 -13 5 -11 0 -14 -3 -6 -6z"/>
<path d="M2105 1220 c27 -12 35 -12 35 0 0 6 -12 10 -27 9 -25 0 -26 -1 -8 -9z"/>
<path d="M2701 1164 c-22 -11 -21 -12 15 -18 22 -3 64 -2 94 3 l55 9 -47 1
c-27 0 -48 4 -48 9 0 11 -43 8 -69 -4z"/>
<path d="M2848 1173 c6 -2 18 -2 25 0 6 3 1 5 -13 5 -14 0 -19 -2 -12 -5z"/>
<path d="M2905 1170 c-3 -5 -2 -10 4 -10 5 0 13 5 16 10 3 6 2 10 -4 10 -5 0
-13 -4 -16 -10z"/>
<path d="M2958 1173 c7 -3 16 -2 19 1 4 3 -2 6 -13 5 -11 0 -14 -3 -6 -6z"/>
<path d="M2953 1143 c9 -2 25 -2 35 0 9 3 1 5 -18 5 -19 0 -27 -2 -17 -5z"/>
</g>
</svg>
